<svg width="40" height="31" viewBox="0 0 40 31" fill="none" xmlns="http://www.w3.org/2000/svg">
<g id="Group">
<path id="Vector" d="M35.913 26.6958L39.1871 27.3171V30.5294H28.4318L19.5829 8.71092H19.4578L10.8782 30.5294H0V27.3171L3.29528 26.6958L8.28909 24.3952L8.39299 24.4164L17.7402 1.0437H21.5317L31.1461 24.2913L31.25 24.2701L30.9807 11.548L35.913 26.6958Z" fill="#D2AE6D"/>
<path id="Vector_2" d="M0.00231934 30.5274V27.3362L3.27639 26.715V4.1925L0.00231934 3.57123V0.358887H10.7576L19.6065 22.1774H19.7316L28.3091 0.358887H39.1873V3.57123L35.892 4.1925V26.715L39.1873 27.3362V30.5274H27.3972V27.3362L30.8579 26.715V19.6902L30.8982 6.49097L30.7943 6.46976L21.4492 29.8425H17.6577L8.04119 6.59486L7.93728 6.61607L8.20659 19.3382V26.715L11.7924 27.3362V30.5274H0.00231934Z" fill="#892E07"/>
</g>
</svg>
